<svg width="300" height="150" viewBox="0 0 300 150" xmlns="http://www.w3.org/2000/svg">
  <g transform="translate(20, 30)">
    <path d="M75,100 L35,100 Q15,100 15,80 L15,40 Q15,20 35,20 L75,20 L75,45 L45,45 Q40,45 40,50 L40,70 Q40,75 45,75 L75,75 Z" fill="black"/>
    <g transform="translate(85, 0)">
      <path d="M0,100 L30,20 L55,20 L85,100 L55,100 L50,85 L35,85 L30,100 Z" fill="black"/>
      <path d="M32,80 L78,80 L55,35 Z" fill="#FFCD00"/>
    </g>
    <path d="M185,20 L265,20 L265,45 L240,45 L240,100 L210,100 L210,45 L185,45 Z" fill="black"/>
  </g>
</svg>