<svg xmlns="http://www.w3.org/2000/svg" viewBox="0 0 300 210">
  <path fill="#000000" d="M0 0h300v210H0V0zm245.5 54.8H54.5v100.4h191V54.8z"/>
  <g fill="#FFFFFF">
    <path d="M78.2 128.4c-7.8 0-13.2-5.4-13.2-13.2V94.8c0-7.8 5.4-13.2 13.2-13.2h12.4v8.4H78.2c-3.2 0-4.8 1.6-4.8 4.8v20.4c0 3.2 1.6 4.8 4.8 4.8h12.4v8.4H78.2zM101.4 128.4V81.6h8.4v38.4c0 3.2 1.6 4.8 4.8 4.8s4.8-1.6 4.8-4.8V81.6h8.4v38.4c0 3.2 1.6 4.8 4.8 4.8s4.8-1.6 4.8-4.8V81.6h8.4v33.6c0 7.8-5.4 13.2-13.2 13.2-4.8 0-8.4-2.4-10.4-6.4-2 4-5.6 6.4-10.4 6.4-7.8 0-13.2-5.4-13.2-13.2v-3.6h8.4v3.6c0 3.2 1.6 4.8 4.8 4.8zM153.4 128.4V81.6h8.4v38.4c0 3.2 1.6 4.8 4.8 4.8s4.8-1.6 4.8-4.8V81.6h8.4v38.4c0 3.2 1.6 4.8 4.8 4.8s4.8-1.6 4.8-4.8V81.6h8.4v33.6c0 7.8-5.4 13.2-13.2 13.2-4.8 0-8.4-2.4-10.4-6.4-2 4-5.6 6.4-10.4 6.4-7.8 0-13.2-5.4-13.2-13.2v-3.6h8.4v3.6c0 3.2 1.6 4.8 4.8 4.8zM205.4 128.4V81.6h8.4v46.8h-8.4zM223.4 128.4V81.6h8.4v6.4c2-4 5.6-6.4 10.4-6.4 7.8 0 13.2 5.4 13.2 13.2v33.6h-8.4V94.8c0-3.2-1.6-4.8-4.8-4.8s-4.8 1.6-4.8 4.8v33.6h-8.4zM265.4 120h8.4c0 3.2 1.6 4.8 4.8 4.8 3.2 0 4.8-1.6 4.8-4.8 0-3.2-1.6-4.8-4.8-4.8h-4.8c-7.8 0-13.2-5.4-13.2-13.2s5.4-13.2 13.2-13.2 13.2 5.4 13.2 13.2h-8.4c0-3.2-1.6-4.8-4.8-4.8-3.2 0-4.8 1.6-4.8 4.8 0 3.2 1.6 4.8 4.8 4.8h4.8c7.8 0 13.2 5.4 13.2 13.2s-5.4 13.2-13.2 13.2-13.2-5.4-13.2-13.2z"/>
  </g>
</svg>