<svg xmlns="http://www.w3.org/2000/svg" viewBox="0 0 280 33" width="280" height="33">
  <path fill="#000" d="M11.4 24.4H1.1V8.6h10.3v2.3H3.8v4.1h6.8v2.3H3.8v4.8h7.6v2.3zm14.8 0h-2.6l-6.4-9.4v9.4h-2.7V8.6h2.6l6.4 9.4V8.6h2.7v15.8zm14.4-7.9c0 4.8-3.4 8.2-8.1 8.2h-4.8V8.6h4.8c4.7 0 8.1 3.4 8.1 7.9zm-2.7 0c0-3.3-2.2-5.6-5.4-5.6h-2.1v11.2h2.1c3.2 0 5.4-2.3 5.4-5.6zm14.4 7.9h-3.1l-3.4-5.8h-1.8v5.8h-2.7V8.6h4.8c3.3 0 5.5 2.1 5.5 5.1 0 2.1-1.1 3.8-2.9 4.6l3.6 6.1zm-5.2-8.1c0-1.7-1.2-2.8-2.8-2.8h-2.1v5.6h2.1c1.6 0 2.8-1.1 2.8-2.8zm14.4 8.1h-10.3V8.6h10.3v2.3h-7.6v4.1h6.8v2.3h-6.8v4.8h7.6v2.3zm11.4-2.1c-1.1 1.4-2.9 2.4-5.1 2.4-3.8 0-6.5-2.8-6.5-6.5s2.7-6.5 6.5-6.5c2.2 0 4 1 5.1 2.4l-2 1.6c-.7-.9-1.8-1.6-3.1-1.6-2.3 0-3.8 1.8-3.8 4.1s1.5 4.1 3.8 4.1c1.3 0 2.4-.7 3.1-1.6l2 1.6zm11.4 2.1c-1.1 1.4-2.9 2.4-5.1 2.4-3.8 0-6.5-2.8-6.5-6.5s2.7-6.5 6.5-6.5c2.2 0 4 1 5.1 2.4l-2 1.6c-.7-.9-1.8-1.6-3.1-1.6-2.3 0-3.8 1.8-3.8 4.1s1.5 4.1 3.8 4.1c1.3 0 2.4-.7 3.1-1.6l2 1.6zm14.4-11.1h-3.8v11.1h-2.7V13.3h-3.8v-2.3h10.3v2.3zm14.4 11.1h-2.7v-6.8h-6.8v6.8h-2.7V8.6h2.7v15.8zm14.4 0h-2.8l-1.4-3.8h-6.1l-1.4 3.8h-2.8l5.8-15.8h2.9l5.8 15.8zm-4.9-6.1l-2.3-6.1-2.3 6.1h4.6zm14.4 6.1c-1.8 0-3.4-.8-4.4-2.1v1.8h-2.7V8.6h2.7v7.1c1-1.3 2.6-2.1 4.4-2.1 3.4 0 5.8 2.7 5.8 6.5s-2.4 6.5-5.8 6.5zm-.4-2.3c2.1 0 3.5-1.7 3.5-4.2s-1.4-4.2-3.5-4.2-3.5 1.7-3.5 4.2 1.4 4.2 3.5 4.2zm14.8 2.3h-2.7v-1.8c-1 1.3-2.6 2.1-4.4 2.1-3.4 0-5.8-2.7-5.8-6.5s2.4-6.5 5.8-6.5c1.8 0 3.4.8 4.4 2.1V8.6h2.7v15.8zm-7.1-2.3c2.1 0 3.5-1.7 3.5-4.2s-1.4-4.2-3.5-4.2-3.5 1.7-3.5 4.2 1.4 4.2 3.5 4.2zm14.4 2.3c-3.8 0-6.5-2.8-6.5-6.5s2.7-6.5 6.5-6.5 6.5 2.8 6.5 6.5-2.7 6.5-6.5 6.5zm0-2.3c2.3 0 3.8-1.8 3.8-4.2s-1.5-4.2-3.8-4.2-3.8 1.8-3.8 4.2 1.5 4.2 3.8 4.2zm14.4 2.3h-3.1l-3.4-5.8h-1.8v5.8h-2.7V8.6h4.8c3.3 0 5.5 2.1 5.5 5.1 0 2.1-1.1 3.8-2.9 4.6l3.6 6.1zm-5.2-8.1c0-1.7-1.2-2.8-2.8-2.8h-2.1v5.6h2.1c1.6 0 2.8-1.1 2.8-2.8z"/>
  <path fill="#A9005D" d="M108.5 14.5h-3v-3h-2v3h-3v2h3v3h2v-3h3z"/>
</svg>