<svg xmlns="http://www.w3.org/2000/svg" viewBox="0 0 512 166">
  <rect width="512" height="166" fill="#FFC20E"/>
  <path d="M58.4 41.4h74.8v18.4H80.5v26.8h45.4v18.4H80.5v39.8H58.4V41.4zm91.4 0h22.1v85.1h52.7v18.4h-74.8V41.4zm155.4 0v71.4c0 22.1-13.4 33.8-34.8 33.8s-34.8-11.7-34.8-33.8V41.4h22.1v71.4c0 10.4 5.4 15.4 12.7 15.4s12.7-5 12.7-15.4V41.4h22.1zm35.4 0h22.1v41.8l39.1-41.8h27.1l-38.1 40.1 41.1 63.4h-25.4l-31.8-50.1-12 12.7v37.4h-22.1V41.4zm112.4 0h74.8v18.4h-52.7v26.8h45.4v18.4h-45.4v21.4h52.7v18.4h-74.8V41.4z" fill="#000000"/>
</svg>