<svg xmlns="http://www.w3.org/2000/svg" viewBox="0 0 512 143">
  <path fill="#0054A6" d="M64.4 108.4V34.6h14.7l18.4 44.8 18.4-44.8h14.7v73.8h-11.5V50.3l-17.5 42.4h-8.2l-17.5-42.4v58.1H64.4zm104.1 0V34.6h44.1v10.1h-32.6v20.8h29.8v10.1h-29.8v22.7h33.8v10.1h-45.3zm84.4-36.9c0-22.4 16.4-38.1 38.8-38.1 14.7 0 25.8 6.5 31.8 17.1l-9.6 5.5c-4.4-7.4-12.4-12.5-22.2-12.5-15.8 0-27.3 11.1-27.3 28s11.5 28 27.3 28c9.8 0 17.8-5.1 22.2-12.5l9.6 5.5c-6 10.6-17.1 17.1-31.8 17.1-22.4 0-38.8-15.7-38.8-38.1zm84.4 0c0-22.4 16.4-38.1 38.8-38.1 14.7 0 25.8 6.5 31.8 17.1l-9.6 5.5c-4.4-7.4-12.4-12.5-22.2-12.5-15.8 0-27.3 11.1-27.3 28s11.5 28 27.3 28c9.8 0 17.8-5.1 22.2-12.5l9.6 5.5c-6 10.6-17.1 17.1-31.8 17.1-22.4 0-38.8-15.7-38.8-38.1zm114.1 36.9V34.6h11.5v63.7h31.4v10.1h-42.9zm64.4-63.7h-21.2V34.6h53.9v10.1h-21.2v63.7h-11.5V44.7zm44.1 63.7V34.6h44.1v10.1h-32.6v20.8h29.8v10.1h-29.8v22.7h33.8v10.1h-45.3z"/>
</svg>