<svg xmlns="http://www.w3.org/2000/svg" viewBox="0 0 600 150">
  <g fill="#009640">
    <path d="M45,30 L45,120 L65,120 L65,85 L85,85 C105,85 115,75 115,57 C115,40 105,30 85,30 L45,30 Z M65,48 L82,48 C92,48 96,52 96,57 C96,63 92,67 82,67 L65,67 L65,48 Z" />
    <path d="M125,65 L125,85 L145,85 L145,105 L165,105 L165,85 L185,85 L185,65 L165,65 L165,45 L145,45 L145,65 L125,65 Z" />
    <path d="M195,30 L195,120 L215,120 L215,85 L255,85 L255,67 L215,67 L215,48 L260,48 L260,30 L195,30 Z" />
    <text x="280" y="95" font-family="Arial, sans-serif" font-weight="bold" font-size="55">PEPPERL+FUCHS</text>
  </g>
</svg>