<svg xmlns="http://www.w3.org/2000/svg" viewBox="0 0 240 80">
  <path fill="#0080AA" d="M38.4 20.5l10.8 16.4 10.8-16.4h11.4L54.6 42.8l17.4 26.4H60.6L49.2 52.1 37.8 69.2H26.4l17.4-26.4-16.8-22.3h11.4zm48.3 48.7l10.8-16.4 10.8 16.4h11.4L102.3 42.8l17.4-26.4h-11.4l-11.4 17.1-11.4-17.1H78.1l17.4 26.4-16.8 22.3h11.4zm44.1-48.7h9.6v48.7h-9.6V20.5zm24.6 24.6c0-14.1 10.8-25.2 25.2-25.2 13.8 0 24.6 10.8 24.6 24.6v2.4h-40.2c0.9 8.4 7.8 14.1 15.9 14.1 6.3 0 11.4-3 13.8-7.8h10.2c-3 9.9-12.3 16.8-24 16.8-14.4 0-25.5-11.1-25.5-24.9zm40.2-4.8c-0.9-7.8-7.2-12.6-15-12.6-8.1 0-14.4 5.1-15.6 12.6h30.6zm24.6-19.8h9.3v6.9c3-4.8 8.7-7.8 15.3-7.8 8.1 0 13.8 4.2 16.5 10.8 3.6-6.6 9.9-10.8 18.3-10.8 11.4 0 18.9 7.8 18.9 19.8v29.7h-9.6V41.3c0-7.2-3.9-11.4-10.2-11.4-6.3 0-10.5 4.2-10.5 11.4v27.9h-9.6V41.3c0-7.2-3.9-11.4-10.2-11.4-6.3 0-10.5 4.2-10.5 11.4v27.9h-9.6V20.5z"/>
</svg>